<?xml version="1.0" encoding="UTF-8" standalone="no"?>
<svg width="200px" height="150px" viewBox="0 0 200 150" version="1.1" xmlns="http://www.w3.org/2000/svg" xmlns:xlink="http://www.w3.org/1999/xlink">
    <!-- Generator: Sketch 40.2 (33826) - http://www.bohemiancoding.com/sketch -->
    <title>sigfig</title>
    <desc>Created with Sketch.</desc>
    <defs>
        <rect id="path-1" x="0" y="0" width="200" height="150"></rect>
    </defs>
    <g id="Page-1" stroke="none" stroke-width="1" fill="none" fill-rule="evenodd">
        <g id="sigfig">
            <g id="Page-1">
                <g id="Artboard">
                    <g id="Group-2">
                        <g id="Rectangle-Clipped">
                            <mask id="mask-2" fill="white">
                                <use xlink:href="#path-1"></use>
                            </mask>
                            <g id="path-1"></g>
                            <g id="Rectangle" mask="url(#mask-2)" stroke="#FFFFFF" stroke-opacity="0.01" stroke-width="2">
                                <g transform="translate(0.000000, -25.000000)" id="path-1">
                                    <rect x="0" y="0" width="200" height="200"></rect>
                                </g>
                            </g>
                        </g>
                        <g id="sigfig" transform="translate(80.000000, 54.000000)" fill="#F05A50">
                            <g id="Group">
                                <path d="M6.58777754,19.7633326 C6.70541643,19.6456937 6.82305531,19.5280549 7.05833308,19.5280549 C11.2933329,17.0576383 12.1168051,15.6459717 12.1168051,10.7051385 C12.1168051,6.35249977 15.6459717,2.82333323 19.9986104,2.82333323 C21.5279159,2.82333323 22.9395825,3.29388877 24.2336102,3.99972208 C25.2923602,3.52916654 26.468749,3.29388877 27.6451379,3.17624989 C25.6452769,1.17638885 22.9395825,0 19.9986104,0 C14.1166662,0 9.29347189,4.82319427 9.175833,10.7051385 C9.175833,14.5872217 8.82291635,15.0577772 5.52902758,17.0576383 C5.41138869,17.0576383 5.29374981,17.1752772 5.29374981,17.292916 C5.52902758,18.2340271 5.88194423,19.0574993 6.58777754,19.7633326" id="Shape"></path>
                                <path d="M12.1168051,32.1154155 L12.1168051,31.64486 C12.1168051,26.8216657 11.2933329,25.2923602 7.05833308,22.8219436 C3.29388877,20.5868048 1.99986104,15.7636105 4.23499985,11.9991662 C5.05847204,10.7051385 6.117222,9.64638854 7.41124973,8.94055523 C7.52888862,7.76416639 7.88180527,6.58777754 8.35236081,5.52902758 C5.52902758,6.23486089 3.17624989,7.99944416 1.64694439,10.5874996 C-1.29402773,15.7636105 0.470555539,22.3513881 5.52902758,25.2923602 C8.82291635,27.2922212 9.175833,27.7627768 9.175833,31.64486 L9.175833,31.9977766 C10.1169441,32.2330544 11.175694,32.3506933 12.1168051,32.1154155" id="Shape"></path>
                                <path d="M25.527638,33.5270821 C25.4099991,33.4094432 25.1747213,33.4094432 25.0570824,33.2918044 C20.8220826,30.9390267 19.1751382,30.9390267 14.9401384,33.2918044 C11.175694,35.4093043 6.35249977,34.1152765 4.11736096,30.3508322 C3.29388877,29.0568045 3.058611,27.527499 3.058611,26.1158324 C2.11749992,25.4099991 1.29402773,24.5865269 0.588194423,23.5277769 C-0.117638885,26.2334713 0.117638885,29.1744434 1.64694439,31.7624989 C4.5879165,36.9386098 11.175694,38.703193 16.351805,35.7622209 C19.7633326,33.8799988 20.351527,33.8799988 23.6454158,35.7622209 C23.7630547,35.7622209 23.8806936,35.8798598 23.9983325,35.8798598 C24.7041658,35.2916654 25.1747213,34.4681932 25.527638,33.5270821" id="Shape"></path>
                                <path d="M33.4094432,22.5866659 C33.2918044,22.7043047 33.1741655,22.8219436 32.9388877,22.8219436 C28.7038879,25.2923602 27.8804157,26.7040268 27.8804157,31.64486 C27.8804157,35.9974987 24.3512491,39.5266652 19.9986104,39.5266652 C18.4693049,39.5266652 17.0576383,39.0561097 15.7636105,38.3502764 C14.7048606,38.8208319 13.5284717,39.0561097 12.3520829,39.1737486 C14.3519439,41.1736096 17.0576383,42.3499985 19.9986104,42.3499985 C25.8805546,42.3499985 30.7037489,37.5268042 30.8213878,31.64486 C30.8213878,27.7627768 31.1743044,27.2922212 34.4681932,25.2923602 C34.5858321,25.2923602 34.703471,25.1747213 34.703471,25.0570824 C34.4681932,24.1159714 34.1152765,23.2924992 33.4094432,22.5866659" id="Shape"></path>
                                <path d="M27.8804157,10.234583 L27.8804157,10.7051385 C27.8804157,15.5283328 28.7038879,17.0576383 32.9388877,19.5280549 C36.703332,21.7631937 37.9973597,26.5863879 35.7622209,30.3508322 C34.9387487,31.64486 33.8799988,32.7036099 32.585971,33.4094432 C32.4683322,34.5858321 32.1154155,35.7622209 31.64486,36.8209709 C34.3505543,36.1151376 36.703332,34.3505543 38.2326375,31.7624989 C41.1736096,26.5863879 39.4090264,19.9986104 34.3505543,17.0576383 C31.0566655,15.0577772 30.7037489,14.5872217 30.7037489,10.7051385 L30.7037489,10.3522218 C29.8802767,10.1169441 28.8215267,9.9993052 27.8804157,10.234583" id="Shape"></path>
                                <path d="M14.4695828,8.82291635 C14.5872217,8.94055523 14.8224995,8.94055523 14.9401384,9.05819412 C19.1751382,11.4109718 20.8220826,11.4109718 25.0570824,9.05819412 C28.8215267,6.94069419 33.644721,8.23472193 35.8798598,11.9991662 C36.703332,13.293194 36.9386098,14.8224995 36.9386098,16.2341661 C37.8797209,16.9399994 38.703193,17.7634716 39.4090264,18.8222215 C40.1148597,16.1165272 39.8795819,13.1755551 38.3502764,10.5874996 C35.4093043,5.41138869 28.8215267,3.64680542 23.6454158,6.58777754 C20.2338882,8.46999969 19.6456937,8.46999969 16.351805,6.58777754 C16.2341661,6.58777754 16.1165272,6.47013866 15.9988883,6.47013866 C15.293055,7.05833308 14.8224995,7.88180527 14.4695828,8.82291635" id="Shape"></path>
                            </g>
                        </g>
                    </g>
                </g>
            </g>
        </g>
    </g>
</svg>