<svg width="60" height="60" viewBox="746 658 60 60" xmlns="http://www.w3.org/2000/svg"><g fill="none" fill-rule="evenodd" transform="translate(746 658)"><circle cx="30" cy="30" r="30"/><path d="M30 41c-6 0-11-5-11-11s5-11 11-11 11 5 11 11-5 11-11 11zm9.3-9.4c-.3-.2-3-1-5.8-.5l1.8 6.8c2-1.6 3.6-4 4-6.3zm-5.5 7c-.3-.7-.8-3.6-2-7-5.3 1.8-7.2 5.5-7.4 6 2.7 2 6.3 2.4 9.5 1h-.2zm-11-2.3c.4-.3 3-4.7 7.8-6.3h.4l-.8-1.6c-4.7 1.4-9.2 1.4-9.6 1.4v.2c0 2.4.8 4.6 2.3 6.3zM21 28c.4 0 4.3 0 8.6-1-1.5-2.7-3-5-3.4-5.3-2.8 1.2-4.7 3.7-5.4 6.6l.2-.2zm7-7c.2.2 2 2.6 3.5 5.4 3.3-1.3 4.7-3.2 5-3.4-2.4-2-5.6-2.7-8.7-2h.3zm9.5 3c-.2.3-1.8 2.4-5.3 3.8l.7 1.3v.4c3.3-.3 6.4.3 6.7.4 0-2.2-.8-4.3-2-6v.2z" fill="#FFF"/></g></svg>