<svg width="60" height="60" viewBox="569 658 60 60" xmlns="http://www.w3.org/2000/svg"><g fill="none" fill-rule="evenodd" transform="translate(569 658)"><circle cx="30" cy="30" r="30"/><path d="M30 19c-6 0-11 5-11 11 0 5 3 9 7.5 10.7.6 0 .8-.3.8-.6v-2c-3 .8-3.7-1.3-3.7-1.3-.5-1-1.3-1.6-1.3-1.6-1-.4 0-.4 0-.4 1.2 0 1.8 1.2 1.8 1.2 1 1.6 2.7 1.2 3.3.8 0-.7.3-1 .7-1.4-2.5-.2-5-1.2-5-5.6 0-1 .6-2 1.3-2.8 0-.3-.5-1.5 0-3 0 0 1-.2 3 1.2 1-.2 2-.4 3-.4s1.8.2 2.7.4c2-1.4 3-1.2 3-1.2.6 1.6 0 2.7 0 3 1 .8 1.2 1.7 1.2 3 0 4.3-2.6 5.2-5 5.6.3.3.7 1 .7 2v3c0 .3 0 .7.7.6C38 39 41 35 41 30c0-6-5-11-11-11" fill="#FFF"/></g></svg>