<svg width="60" height="60" viewBox="392 658 60 60" xmlns="http://www.w3.org/2000/svg"><g fill="none" fill-rule="evenodd" transform="translate(392 658)"><circle cx="30" cy="30" r="30"/><path d="M27.5 42c9 0 14-7.7 14-14.2V27c1-.7 2-1.6 2.5-2.4l-2.8.8c1-.8 1.8-1.6 2.2-3-1 .7-2 1-3.2 1.3-1.5-1.7-4-2.2-6-1.2-2 1-3 3.3-2.5 5.7-4-.3-7.7-2.2-10.2-5.3-1.2 2.3-.5 5 1.6 6.6-.7 0-1.5-.3-2-.6 0 2.5 1.5 4.5 4 5-1 0-1.7.2-2.4 0 .7 2 2.4 3.5 4.6 3.5-1.6 1.7-3.8 2.3-6 2.3H20c2.2 1.4 4.8 2.2 7.5 2.2" fill="#FFF"/></g></svg>