<svg width="768" height="459" viewBox="0 0 768 459" xmlns="http://www.w3.org/2000/svg"><g fill="none" fill-rule="evenodd"><rect fill="#EEEFF2" x="652" y="20" width="116" height="156" rx="4"/><rect fill="#EEEFF2" x="302" y="144" width="116" height="260" rx="4"/><text transform="translate(426 310)" font-size="10" font-family="Roboto-Regular, Roboto" fill="#999BA2"><tspan x=".2" y="10">Exceeds Due</tspan></text><text transform="translate(426 247)" font-size="10" font-family="Roboto-Regular, Roboto" fill="#999BA2"><tspan x=".3" y="10">Checks out Items</tspan></text><path d="M411 264h101M410.5 272.5L512 316" stroke="#999BA2"/><rect fill="#EEEFF2" y="144" width="268" height="131" rx="4"/><rect fill="#EEEFF2" x="452" y="387" width="116" height="50" rx="4"/><rect stroke="#EEEFF2" fill="#FFF" x="160" y="152" width="100" height="40" rx="4"/><rect stroke="#EEEFF2" fill="#FFF" x="10" y="152" width="100" height="40" rx="4"/><text transform="translate(45 167)" font-size="10" font-family="Roboto-Regular, Roboto" fill="#4C4F65"><tspan x=".1" y="10">Log In</tspan></text><text transform="translate(10 254)" font-size="10" font-family="Roboto-Regular, Roboto" fill="#999BA2"><tspan x=".4" y="10">Onboarding</tspan></text><rect stroke="#EEEFF2" fill="#FFF" x="310" y="200" width="100" height="40" rx="4"/><rect stroke="#EEEFF2" fill="#FFF" x="310" y="252" width="100" height="40" rx="4"/><text transform="translate(333 214)" font-size="10" font-family="Roboto-Regular, Roboto" fill="#4C4F65"><tspan x=".4" y="10">Item Search</tspan></text><rect stroke="#EEEFF2" fill="#FFF" x="310" y="152" width="100" height="40" rx="4"/><g font-size="10" font-family="Roboto-Regular, Roboto" fill="#4C4F65"><text transform="translate(316 160)"><tspan x=".5" y="10">Main Page, Popular</tspan></text><text transform="translate(316 160)"><tspan x="12.1" y="23">/Recent Items</tspan></text></g><text transform="translate(320 266)" font-size="10" font-family="Roboto-Regular, Roboto" fill="#4C4F65"><tspan x=".4" y="10">Check out History</tspan></text><rect stroke="#EEEFF2" fill="#FFF" x="310" y="304" width="100" height="40" rx="4"/><text transform="translate(331 318)" font-size="10" font-family="Roboto-Regular, Roboto" fill="#4C4F65"><tspan x=".2" y="10">Search Inbox</tspan></text><rect stroke="#EEEFF2" fill="#FFF" x="310" y="356" width="100" height="40" rx="4"/><text transform="translate(320 370)" font-size="10" font-family="Roboto-Regular, Roboto" fill="#4C4F65"><tspan x=".1" y="10">Recommendation</tspan></text><rect stroke="#EEEFF2" fill="#FFF" x="460" y="366" width="100" height="40" rx="4"/><rect fill="#999BA2" x="660" y="156" width="100" height="40" rx="4"/><rect fill="#999BA2" x="510" y="252" width="100" height="40" rx="4"/><rect stroke="#EEEFF2" fill="#FFF" x="460" y="418" width="100" height="40" rx="4"/><g font-size="10" font-family="Roboto-Regular, Roboto" fill="#4C4F65"><text transform="translate(474 373)"><tspan x="14.5" y="10">Based On</tspan></text><text transform="translate(474 373)"><tspan x=".2" y="23">Search Keyword</tspan></text></g><g font-size="10" font-family="Roboto-Regular, Roboto" fill="#FFF"><text transform="translate(679 163)"><tspan x=".4" y="10">Recommends</tspan></text><text transform="translate(679 163)"><tspan x="15.3" y="23">to peer</tspan></text></g><g font-size="10" font-family="Roboto-Regular, Roboto" fill="#FFF"><text transform="translate(516 259)"><tspan x=".2" y="10">Item Removed from</tspan></text><text transform="translate(516 259)"><tspan x="6.2" y="23">the Search Inbox</tspan></text></g><rect fill="#999BA2" x="510" y="304" width="100" height="40" rx="4"/><text transform="translate(535 318)" font-size="10" font-family="Roboto-Regular, Roboto" fill="#FFF"><tspan x=".2" y="10">Alerts User</tspan></text><g font-size="10" font-family="Roboto-Regular, Roboto" fill="#4C4F65"><text transform="translate(470 425)"><tspan x="18.5" y="10">Based On</tspan></text><text transform="translate(470 425)"><tspan x=".4" y="23">Check out History</tspan></text></g><rect fill="#EEEFF2" x="452" y="72" width="116" height="104" rx="4"/><text transform="translate(576 100)" font-size="10" font-family="Roboto-Regular, Roboto" fill="#999BA2"><tspan x="0" y="10">Available</tspan></text><text transform="translate(576 125)" font-size="10" font-family="Roboto-Regular, Roboto" fill="#999BA2"><tspan x=".1" y="10">Not Available</tspan></text><rect fill="#999BA2" x="660" width="100" height="40" rx="4"/><rect fill="#999BA2" x="660" y="104" width="100" height="40" rx="4"/><rect fill="#999BA2" x="660" y="52" width="100" height="40" rx="4"/><g font-size="10" font-family="Roboto-Regular, Roboto" fill="#FFF"><text transform="translate(668 7)"><tspan x=".5" y="10">Added to Wishlist/</tspan></text><text transform="translate(668 7)"><tspan x="19.1" y="23">Liked Item</tspan></text></g><text transform="translate(671 118)" font-size="10" font-family="Roboto-Regular, Roboto" fill="#FFF"><tspan x=".3" y="10">Reserve the Book</tspan></text><g font-size="10" font-family="Roboto-Regular, Roboto" fill="#FFF"><text transform="translate(673 59)"><tspan x=".4" y="10">Added to Search</tspan></text><text transform="translate(673 59)"><tspan x="25.1" y="23">Inbox</tspan></text></g><text transform="translate(176 167)" font-size="10" font-family="Roboto-Regular, Roboto" fill="#4C4F65"><tspan x=".2" y="10">Profile Set Up</tspan></text><g font-size="10" font-family="Roboto-Regular, Roboto" fill="#999BA2"><text transform="translate(160 204)"><tspan x=".5" y="10">Import Information</tspan></text><text transform="translate(160 204)"><tspan x="0" y="33">Connect Social Media</tspan></text><text transform="translate(160 204)"><tspan x=".4" y="56">Link Library</tspan></text></g><path stroke="#999BA2" d="M359 152v-31h301.6"/><rect stroke="#EEEFF2" fill="#FFF" x="460" y="52" width="100" height="40" rx="4"/><rect stroke="#EEEFF2" fill="#FFF" x="460" y="104" width="100" height="40" rx="4"/><g font-size="10" font-family="Roboto-Regular, Roboto" fill="#4C4F65"><text transform="translate(475 59)"><tspan x=".2" y="10">Recently added</tspan></text><text transform="translate(475 59)"><tspan x="22.2" y="23">Items</tspan></text></g><g font-size="10" font-family="Roboto-Regular, Roboto" fill="#4C4F65"><text transform="translate(473 111)"><tspan x=".1" y="10">Popular in users</tspan></text><text transform="translate(473 111)"><tspan x="23.8" y="23">major</tspan></text></g><rect stroke="#EEEFF2" fill="#FFF" x="460" y="156" width="100" height="40" rx="4"/><g font-size="10" font-family="Roboto-Regular, Roboto" fill="#4C4F65"><text transform="translate(470 163)"><tspan x="14.1" y="10">Required in</tspan></text><text transform="translate(470 163)"><tspan x=".4" y="23">registered course</tspan></text></g><path d="M111 172h49.4M260.5 172h49.8M361 396.2v22h91M568.4 101.2L660.2 71" stroke="#999BA2"/></g></svg>