<svg xmlns="http://www.w3.org/2000/svg" width="972" height="487" viewBox="0 0 972 487">
  <title>
    rm
  </title>
  <g fill="none" fill-rule="evenodd">
    <g stroke="#D8D8D8">
      <path fill="#00698D" d="M338 264.8l189.3 110L721 262.3 529 154z"/>
      <path fill="#FFF5EC" d="M346 265l181 105 185-107.4L528.7 159z"/>
      <path fill="#CAB7A8" d="M454 264.7l5 11 20 3.4 13.8-8-5.6-11.2L468 256z"/>
      <path fill="#CAB7A8" d="M462 245.7l5 11 20 3.4 13.8-8-5.6-11.2L476 238zM420.5 268.4l5 11 19.8 3.4 14-8.2-5.6-11-19.3-3zM470 296.7l5 11 20 3.4 13.8-8-5.6-11.2L484 289z"/>
      <path fill="#CAB7A8" d="M495 310.7l5 11 20 3.4 13.8-8-5.6-11.2L509 303z"/>
      <path fill="#CAB7A8" d="M503 291.7l5 11 20 3.4 13.8-8-5.6-11.2L517 284z"/>
      <path fill="#CAB7A8" d="M528 305.7l5 11 20 3.4 13.8-8-5.6-11.2L542 298zM429.2 250.7l5 11 20 3.4 13.8-8-5.6-11.2-19.2-2.8z"/>
      <path fill="#00D9D9" d="M478 277.7l5 11 20 3.4 13.8-8-5.6-11.2L492 270z"/>
      <path fill="#00D9D9" d="M445 282.7l5 11 20 3.4 13.8-8-5.6-11.2L459 275zM520 255.7l5 11 20 3.4 13.8-8-5.6-11.2L534 247z"/>
      <path fill="#CAB7A8" d="M486.5 260.4l5 10 19.8 3.4 14-8.2-5.6-11-19.3-3zM536 287.7l5 11 20 3.4 13.8-8-5.6-11.2L550 280z"/>
      <path fill="#CAB7A8" d="M569 282.7l5 11 20 3.4 13.8-8-5.6-11.2L583 275zM495.2 240.7l5 11 20 4.4 13.8-9-5.6-10.2-19.2-3.8z"/>
      <path fill="#CAB7A8" d="M471 226.7l5 11 20 4.4 13.8-9-5.6-10.2L485 219zM544 268.7l5 11 20 3.4 13.8-8-5.6-11.2L558 261z"/>
      <path fill="#00D9D9" d="M511 273.7l5 11 20 3.4 13.8-8-5.6-11.2L525 266zM528 236.7l5 11 20 3.4 13.8-8-5.6-11.2L542 229z"/>
      <path fill="#CAB7A8" d="M504 222.7l5 11 20 3.4 13.8-8-5.6-11.2L518 215zM553 250.7l5 11 20 3.4 13.8-8.2-5.6-11L567 243z"/>
      <path fill="#CAB7A8" d="M577 264.7l5 11 21 3.4 13.8-8.2-5.6-11L592 257zM536.5 219.4l5 10 19.8 3.4 14-8.2-5.6-11-19.3-3z"/>
      <path fill="#CAB7A8" d="M512 205.7l5 10 20 3.4 13.8-8.2-5.6-11L526 197zM586 246.7l5 11 20 3.4 13.8-8.2-5.6-11L600 239z"/>
      <path fill="#CAB7A8" d="M611 260.7l5 11 20 3.4 13.8-8.2-5.6-11L625 253z"/>
      <path fill="#00D9D9" d="M561 232.7l5 11 20 3.4 13.8-8.2-5.6-11L575 225z"/>
      <path stroke-width="3" d="M338 264.8l189.3 110L721 262.3 529 154z"/>
    </g>
    <path fill="#F8AC18" stroke="#D8D8D8" d="M339.2 255l43.2 25 65.6-38-43.7-24.8z"/>
    <path stroke="#FFF" d="M351.2 253.5L385 273l51-29.6-34-19.3z"/>
    <path fill="#FFF" stroke="#FFF" d="M402.4 227.8l27 15.7 6.6-4-27.3-15.4z"/>
    <path fill="#F8AC18" stroke="#D8D8D8" d="M339.2 245l43.2 25 65.6-38-43.7-24.8z"/>
    <path stroke="#FFF" d="M351.2 243.5L385 263l51-29.6-34-19.3z"/>
    <path fill="#FFF" stroke="#FFF" d="M402.4 217.8l27 15.7 6.6-4-27.3-15.4z"/>
    <path fill="#F8AC18" stroke="#D8D8D8" d="M339.2 235l43.2 25 65.6-38-43.7-24.8z"/>
    <path stroke="#FFF" d="M351.2 233.5L385 253l51-29.6-34-19.3z"/>
    <path fill="#FFF" stroke="#FFF" d="M402.4 207.8l27 15.7 6.6-4-27.3-15.4z"/>
    <path fill="#00A3E0" d="M170.5 303.8l59.8 34.7 92-53.3-60.6-34.3"/>
    <path fill="#FFF" d="M235.4 283.4l6.2 12.6 22 3 41-23.8-28-15.7"/>
    <path stroke="#00A3DF" stroke-width="3" d="M170.5 303.8l59.8 34.7 92-53.3-60.6-34.3z"/>
    <path fill="#FBFBFB" stroke="#D8D8D8" d="M217.5 121.8l59.8 34.7 92-53.3L308.7 69z"/>
    <path fill="#E5E5E5" d="M319.4 81.4l6.2 12.6 22 3 4.4-4.2-26.6-15"/>
    <path stroke="#D8D8D8" stroke-width="3" d="M217.5 121.8l59.8 34.7 92-53.3L308.7 69z"/>
    <g>
      <path fill="#333" stroke="#8C919C" d="M459.5 449.8l59.8 34.7 92-53.3-60.6-34.3z"/>
      <path fill="#FFF" d="M524.4 429.4l6.2 12.6 22 3 41-23.8-28-15.7"/>
      <path stroke="#333" stroke-width="3" d="M459.5 449.8l59.8 34.7 92-53.3-60.6-34.3z"/>
    </g>
    <g>
      <path fill="#00CE5C" d="M588.5 96.2l-59.8-34.7-92 53.3 60.6 34.3"/>
      <path fill="#FFF" d="M523.6 116.6l-6.2-12.6-22-3-41 23.8 28 15.7"/>
      <path stroke="#00CE5C" stroke-width="3" d="M588.5 96.2l-59.8-34.7-92 53.3 60.6 34.3z"/>
    </g>
    <g>
      <path fill="#E8E8E8" d="M877.5 242.2l-59.8-34.7-92 53.3 60.6 34.3"/>
      <path fill="#FFF" d="M812.6 262.6l-6.2-12.6-22-3-41 23.8 28 15.7"/>
      <path stroke="#D8D8D8" stroke-width="3" d="M877.5 242.2l-59.8-34.7-92 53.3 60.6 34.3z"/>
    </g>
    <path stroke="#D8D8D8" stroke-width="3" d="M339.2 235l8.6 5-8.6 5 8.6 5-8.6 5 43.2 25 65.6-38-8.7-5 8.7-5-8.7-5 8.7-5-43.7-24.8z"/>
    <path fill="#FBFBFB" stroke="#D8D8D8" stroke-width="3" d="M156.8 120l-6.8 4 7.7 4.4-7.7 4.6 6.8 4-6.8 4 118.4 68.7 92-53.4-7-4 7-4-8-4.4 8-4.7-7-4 7-4-121-68.3-89.4 53z"/>
    <path fill="#FBFBFB" stroke="#D8D8D8" d="M239.5 88L150 141l118.4 68.7 92-53.4z"/>
    <path fill="#FBFBFB" stroke="#D8D8D8" d="M239.5 80L150 133l118.4 68.7 92-53.4z"/>
    <path fill="#FBFBFB" stroke="#D8D8D8" d="M239.5 71L150 124l118.4 68.7 92-53.4z"/>
    <path fill="#FBFBFB" stroke="#D8D8D8" d="M239.5 63L150 116l118.4 68.7 92-53.4z"/>
    <path fill="#E5E5E5" d="M236.6 71l-25.2 15-6.4 3.7 41.8 24.3 32.5-19"/>
    <g fill="#FF5757" font-size="20" font-family="Lato">
      <text transform="translate(0 -4)">
        <tspan x="0" y="298">Water Resources</tspan>
      </text>
      <text transform="translate(0 -4)">
        <tspan x="0" y="322">Department</tspan>
      </text>
      <text transform="translate(0 -4)">
        <tspan x="0" y="346">Rule Sheet</tspan>
      </text>
      <text transform="translate(0 -4)">
        <tspan x="683" y="434">Industry Department</tspan>
      </text>
      <text transform="translate(0 -4)">
        <tspan x="683" y="458">Rule Sheet</tspan>
      </text>
      <text transform="translate(0 -4)">
        <tspan x="855" y="298">City Planning</tspan>
      </text>
      <text transform="translate(0 -4)">
        <tspan x="855" y="322">Department</tspan>
      </text>
      <text transform="translate(0 -4)">
        <tspan x="855" y="346">Rule Sheet</tspan>
      </text>
      <text transform="translate(0 -4)">
        <tspan x="683" y="341">Game Board</tspan>
      </text>
      <text transform="translate(0 -4)">
        <tspan x="0" y="158">Group</tspan>
      </text>
      <text transform="translate(0 -4)">
        <tspan x="0" y="182">Scoring Sheet</tspan>
      </text>
      <text transform="translate(0 -4)">
        <tspan x="355.4" y="29">Event Card</tspan>
      </text>
      <text transform="translate(0 -4)">
        <tspan x="0" y="434">Game Pieces:</tspan>
      </text>
      <text transform="translate(0 -4)">
        <tspan x="0" y="458">5 Buildings</tspan>
      </text>
      <text transform="translate(0 -4)">
        <tspan x="0" y="482">10 Connectors</tspan>
      </text>
      <text transform="translate(0 -4)">
        <tspan x="683" y="19">Environmental</tspan>
      </text>
      <text transform="translate(0 -4)">
        <tspan x="683" y="43">Protection</tspan>
      </text>
      <text transform="translate(0 -4)">
        <tspan x="683" y="67">Department</tspan>
      </text>
      <text transform="translate(0 -4)">
        <tspan x="683" y="91">Rule Sheet</tspan>
      </text>
      <text transform="translate(0 -4)">
        <tspan x="0" y="19">Individual</tspan>
      </text>
      <text transform="translate(0 -4)">
        <tspan x="0" y="43">Scoring Sheet</tspan>
      </text>
    </g>
    <g stroke="#8C919C">
      <path fill="#D8D8D8" d="M698.5 204.4v-3.2l15.8-9.4v3.2z"/>
      <path fill="#FFF" d="M696.2 199.6l2.4 1.4 15.7-9.2-2.3-1.3z"/>
      <path fill="#EEE" d="M696.2 199.7v3l2.3 1.7v-3z"/>
      <path fill="#D8D8D8" d="M703.5 207.4v-3.2l15.8-9.4v3.2z"/>
      <path fill="#FFF" d="M701.2 202.6l2.4 1.4 15.7-9.2-2.3-1.3z"/>
      <path fill="#EEE" d="M701.2 202.7v3l2.3 1.7v-3z"/>
      <path fill="#D8D8D8" d="M708.5 210.4v-3.2l15.8-9.4v3.2z"/>
      <path fill="#FFF" d="M706.2 205.6l2.4 1.4 15.7-9.2-2.3-1.3z"/>
      <path fill="#EEE" d="M706.2 205.7v3l2.3 1.7v-3z"/>
      <path fill="#D8D8D8" d="M713.5 213.4v-3.2l15.8-9.4v3.2z"/>
      <path fill="#FFF" d="M711.2 208.6l2.4 1.4 15.7-9.2-2.3-1.3z"/>
      <path fill="#EEE" d="M711.2 208.7v3l2.3 1.7v-3z"/>
      <g>
        <path fill="#D8D8D8" d="M718.5 216.4v-3.2l15.8-9.4v3.2z"/>
        <path fill="#FFF" d="M716.2 211.6l2.4 1.4 15.7-9.2-2.3-1.3z"/>
        <path fill="#EEE" d="M716.2 211.7v3l2.3 1.7v-3z"/>
      </g>
      <g>
        <path fill="#D8D8D8" d="M723.5 219.4v-3.2l15.8-9.4v3.2z"/>
        <path fill="#FFF" d="M721.2 214.6l2.4 1.4 15.7-9.2-2.3-1.3z"/>
        <path fill="#EEE" d="M721.2 214.7v3l2.3 1.7v-3z"/>
      </g>
      <g>
        <path fill="#D8D8D8" d="M728.5 222.4v-3.2l15.8-9.4v3.2z"/>
        <path fill="#FFF" d="M726.2 217.6l2.4 1.4 15.7-9.2-2.3-1.3z"/>
        <path fill="#EEE" d="M726.2 217.7v3l2.3 1.7v-3z"/>
      </g>
      <g>
        <path fill="#D8D8D8" d="M733.5 225.4v-3.2l15.8-9.4v3.2z"/>
        <path fill="#FFF" d="M731.2 220.6l2.4 1.4 15.7-9.2-2.3-1.3z"/>
        <path fill="#EEE" d="M731.2 220.7v3l2.3 1.7v-3z"/>
      </g>
      <g>
        <path fill="#D8D8D8" d="M738.5 228.4v-3.2l15.8-9.4v3.2z"/>
        <path fill="#FFF" d="M736.2 223.6l2.4 1.4 15.7-9.2-2.3-1.3z"/>
        <path fill="#EEE" d="M736.2 223.7v3l2.3 1.7v-3z"/>
      </g>
      <g>
        <path fill="#D8D8D8" d="M743.5 231.4v-3.2l15.8-9.4v3.2z"/>
        <path fill="#FFF" d="M741.2 226.6l2.4 1.4 15.7-9.2-2.3-1.3z"/>
        <path fill="#EEE" d="M741.2 226.7v3l2.3 1.7v-3z"/>
      </g>
      <g>
        <path fill="#EEE" d="M673 218l6 3.6 9.8-6-5.7-3.3z"/>
        <path fill="#FFF" d="M679 217.2v4.3l-6-3.3v-4z"/>
        <path fill="#EEE" d="M688.7 208.3v7.3l-5.7-3.4V205z"/>
        <path fill="#D8D8D8" d="M679.2 217.3v4.2l9.5-6v-7.3l-3.5-.3-1.7 2.8v3.7z"/>
        <path fill="#FFF" d="M678 208l5.3 3 1.8-3h3.7l-5.7-3.3-2.7.3z"/>
        <path fill="#FFF" d="M678 208v3l-5 3 6 3.5 4.4-3V211z"/>
        <g>
          <path fill="#EEE" d="M684 224l6 3.6 9.8-6-5.7-3.3z"/>
          <path fill="#FFF" d="M690 223.2v4.3l-6-3.3v-4z"/>
          <path fill="#EEE" d="M699.7 214.3v7.3l-5.7-3.4V211z"/>
          <path fill="#D8D8D8" d="M690.2 223.3v4.2l9.5-6v-7.3l-3.5-.3-1.7 2.8v3.7z"/>
          <path fill="#FFF" d="M689 214l5.3 3 1.8-3h3.7l-5.7-3.3-2.7.3z"/>
          <path fill="#FFF" d="M689 214v3l-5 3 6 3.5 4.4-3V217z"/>
        </g>
        <g>
          <path fill="#EEE" d="M695 230l6 3.6 9.8-6-5.7-3.3z"/>
          <path fill="#FFF" d="M701 229.2v4.3l-6-3.3v-4z"/>
          <path fill="#EEE" d="M710.7 220.3v7.3l-5.7-3.4V217z"/>
          <path fill="#D8D8D8" d="M701.2 229.3v4.2l9.5-6v-7.3l-3.5-.3-1.7 2.8v3.7z"/>
          <path fill="#FFF" d="M700 220l5.3 3 1.8-3h3.7l-5.7-3.3-2.7.3z"/>
          <path fill="#FFF" d="M700 220v3l-5 3 6 3.5 4.4-3V223z"/>
        </g>
        <g>
          <path fill="#EEE" d="M706 236l6 3.6 9.8-6-5.7-3.3z"/>
          <path fill="#FFF" d="M712 235.2v4.3l-6-3.3v-4z"/>
          <path fill="#EEE" d="M721.7 226.3v7.3l-5.7-3.4V223z"/>
          <path fill="#D8D8D8" d="M712.2 235.3v4.2l9.5-6v-7.3l-3.5-.3-1.7 2.8v3.7z"/>
          <path fill="#FFF" d="M711 226l5.3 3 1.8-3h3.7l-5.7-3.3-2.7.3z"/>
          <path fill="#FFF" d="M711 226v3l-5 3 6 3.5 4.4-3V229z"/>
        </g>
        <g>
          <path fill="#EEE" d="M717 242l6 3.6 9.8-6-5.7-3.3z"/>
          <path fill="#FFF" d="M723 241.2v4.3l-6-3.3v-4z"/>
          <path fill="#EEE" d="M732.7 232.3v7.3l-5.7-3.4V229z"/>
          <path fill="#D8D8D8" d="M723.2 241.3v4.2l9.5-6v-7.3l-3.5-.3-1.7 2.8v3.7z"/>
          <path fill="#FFF" d="M722 232l5.3 3 1.8-3h3.7l-5.7-3.3-2.7.3z"/>
          <path fill="#FFF" d="M722 232v3l-5 3 6 3.5 4.4-3V235z"/>
        </g>
      </g>
      <g>
        <path fill="#333" d="M450.5 382.4v-3.2l15.8-9.4v3.2z"/>
        <path fill="#656871" d="M448.2 377.6l2.4 1.4 15.7-9.2-2.3-1.3zM448.2 377.7v3l2.3 1.7v-3z"/>
        <path fill="#333" d="M455.5 385.4v-3.2l15.8-9.4v3.2z"/>
        <path fill="#656871" d="M453.2 380.6l2.4 1.4 15.7-9.2-2.3-1.3zM453.2 380.7v3l2.3 1.7v-3z"/>
        <path fill="#333" d="M460.5 388.4v-3.2l15.8-9.4v3.2z"/>
        <path fill="#656871" d="M458.2 383.6l2.4 1.4 15.7-9.2-2.3-1.3zM458.2 383.7v3l2.3 1.7v-3z"/>
        <path fill="#333" d="M465.5 391.4v-3.2l15.8-9.4v3.2z"/>
        <path fill="#656871" d="M463.2 386.6l2.4 1.4 15.7-9.2-2.3-1.3zM463.2 386.7v3l2.3 1.7v-3z"/>
        <g>
          <path fill="#333" d="M470.5 394.4v-3.2l15.8-9.4v3.2z"/>
          <path fill="#656871" d="M468.2 389.6l2.4 1.4 15.7-9.2-2.3-1.3zM468.2 389.7v3l2.3 1.7v-3z"/>
        </g>
        <g>
          <path fill="#333" d="M475.5 397.4v-3.2l15.8-9.4v3.2z"/>
          <path fill="#656871" d="M473.2 392.6l2.4 1.4 15.7-9.2-2.3-1.3zM473.2 392.7v3l2.3 1.7v-3z"/>
        </g>
        <g>
          <path fill="#333" d="M480.5 400.4v-3.2l15.8-9.4v3.2z"/>
          <path fill="#656871" d="M478.2 395.6l2.4 1.4 15.7-9.2-2.3-1.3zM478.2 395.7v3l2.3 1.7v-3z"/>
        </g>
        <g>
          <path fill="#333" d="M485.5 403.4v-3.2l15.8-9.4v3.2z"/>
          <path fill="#656871" d="M483.2 398.6l2.4 1.4 15.7-9.2-2.3-1.3zM483.2 398.7v3l2.3 1.7v-3z"/>
        </g>
        <g>
          <path fill="#333" d="M490.5 406.4v-3.2l15.8-9.4v3.2z"/>
          <path fill="#656871" d="M488.2 401.6l2.4 1.4 15.7-9.2-2.3-1.3zM488.2 401.7v3l2.3 1.7v-3z"/>
        </g>
        <g>
          <path fill="#333" d="M495.5 409.4v-3.2l15.8-9.4v3.2z"/>
          <path fill="#656871" d="M493.2 404.6l2.4 1.4 15.7-9.2-2.3-1.3zM493.2 404.7v3l2.3 1.7v-3z"/>
        </g>
      </g>
      <g>
        <path fill="#2A8E57" d="M570.5 126.4v-3.2l15.8-9.4v3.2z"/>
        <path fill="#00CE5C" d="M568.2 121.6l2.4 1.4 15.7-9.2-2.3-1.3zM568.2 121.7v3l2.3 1.7v-3z"/>
        <path fill="#2A8E57" d="M575.5 129.4v-3.2l15.8-9.4v3.2z"/>
        <path fill="#00CE5C" d="M573.2 124.6l2.4 1.4 15.7-9.2-2.3-1.3zM573.2 124.7v3l2.3 1.7v-3z"/>
        <path fill="#2A8E57" d="M580.5 132.4v-3.2l15.8-9.4v3.2z"/>
        <path fill="#00CE5C" d="M578.2 127.6l2.4 1.4 15.7-9.2-2.3-1.3zM578.2 127.7v3l2.3 1.7v-3z"/>
        <path fill="#2A8E57" d="M585.5 135.4v-3.2l15.8-9.4v3.2z"/>
        <path fill="#00CE5C" d="M583.2 130.6l2.4 1.4 15.7-9.2-2.3-1.3zM583.2 130.7v3l2.3 1.7v-3z"/>
        <g>
          <path fill="#2A8E57" d="M590.5 138.4v-3.2l15.8-9.4v3.2z"/>
          <path fill="#00CE5C" d="M588.2 133.6l2.4 1.4 15.7-9.2-2.3-1.3zM588.2 133.7v3l2.3 1.7v-3z"/>
        </g>
        <g>
          <path fill="#2A8E57" d="M595.5 141.4v-3.2l15.8-9.4v3.2z"/>
          <path fill="#00CE5C" d="M593.2 136.6l2.4 1.4 15.7-9.2-2.3-1.3zM593.2 136.7v3l2.3 1.7v-3z"/>
        </g>
        <g>
          <path fill="#2A8E57" d="M600.5 144.4v-3.2l15.8-9.4v3.2z"/>
          <path fill="#00CE5C" d="M598.2 139.6l2.4 1.4 15.7-9.2-2.3-1.3zM598.2 139.7v3l2.3 1.7v-3z"/>
        </g>
        <g>
          <path fill="#2A8E57" d="M605.5 147.4v-3.2l15.8-9.4v3.2z"/>
          <path fill="#00CE5C" d="M603.2 142.6l2.4 1.4 15.7-9.2-2.3-1.3zM603.2 142.7v3l2.3 1.7v-3z"/>
        </g>
        <g>
          <path fill="#2A8E57" d="M610.5 150.4v-3.2l15.8-9.4v3.2z"/>
          <path fill="#00CE5C" d="M608.2 145.6l2.4 1.4 15.7-9.2-2.3-1.3zM608.2 145.7v3l2.3 1.7v-3z"/>
        </g>
        <g>
          <path fill="#2A8E57" d="M615.5 153.4v-3.2l15.8-9.4v3.2z"/>
          <path fill="#00CE5C" d="M613.2 148.6l2.4 1.4 15.7-9.2-2.3-1.3zM613.2 148.7v3l2.3 1.7v-3z"/>
        </g>
      </g>
      <g>
        <path fill="#EEE" d="M283 320l6 3.6 9.8-6-5.7-3.3z"/>
        <path fill="#3DCBFF" d="M289 319.2v4.3l-6-3.3v-4z"/>
        <path fill="#EEE" d="M298.7 310.3v7.3l-5.7-3.4V307z"/>
        <path fill="#00A3DF" d="M289.2 319.3v4.2l9.5-6v-7.3l-3.5-.3-1.7 2.8v3.7z"/>
        <path fill="#3DCBFF" d="M288 310l5.3 3 1.8-3h3.7l-5.7-3.3-2.7.3z"/>
        <path fill="#3DCBFF" d="M288 310v3l-5 3 6 3.5 4.4-3V313z"/>
        <g>
          <path fill="#EEE" d="M294 326l6 3.6 9.8-6-5.7-3.3z"/>
          <path fill="#3DCBFF" d="M300 325.2v4.3l-6-3.3v-4z"/>
          <path fill="#EEE" d="M309.7 316.3v7.3l-5.7-3.4V313z"/>
          <path fill="#00A3DF" d="M300.2 325.3v4.2l9.5-6v-7.3l-3.5-.3-1.7 2.8v3.7z"/>
          <path fill="#3DCBFF" d="M299 316l5.3 3 1.8-3h3.7l-5.7-3.3-2.7.3z"/>
          <path fill="#3DCBFF" d="M299 316v3l-5 3 6 3.5 4.4-3V319z"/>
        </g>
        <g>
          <path fill="#EEE" d="M305 332l6 3.6 9.8-6-5.7-3.3z"/>
          <path fill="#3DCBFF" d="M311 331.2v4.3l-6-3.3v-4z"/>
          <path fill="#EEE" d="M320.7 322.3v7.3l-5.7-3.4V319z"/>
          <path fill="#00A3DF" d="M311.2 331.3v4.2l9.5-6v-7.3l-3.5-.3-1.7 2.8v3.7z"/>
          <path fill="#3DCBFF" d="M310 322l5.3 3 1.8-3h3.7l-5.7-3.3-2.7.3z"/>
          <path fill="#3DCBFF" d="M310 322v3l-5 3 6 3.5 4.4-3V325z"/>
        </g>
        <g>
          <path fill="#EEE" d="M316 338l6 3.6 9.8-6-5.7-3.3z"/>
          <path fill="#3DCBFF" d="M322 337.2v4.3l-6-3.3v-4z"/>
          <path fill="#EEE" d="M331.7 328.3v7.3l-5.7-3.4V325z"/>
          <path fill="#00A3DF" d="M322.2 337.3v4.2l9.5-6v-7.3l-3.5-.3-1.7 2.8v3.7z"/>
          <path fill="#3DCBFF" d="M321 328l5.3 3 1.8-3h3.7l-5.7-3.3-2.7.3z"/>
          <path fill="#3DCBFF" d="M321 328v3l-5 3 6 3.5 4.4-3V331z"/>
        </g>
        <g>
          <path fill="#EEE" d="M327 344l6 3.6 9.8-6-5.7-3.3z"/>
          <path fill="#3DCBFF" d="M333 343.2v4.3l-6-3.3v-4z"/>
          <path fill="#EEE" d="M342.7 334.3v7.3l-5.7-3.4V331z"/>
          <path fill="#00A3DF" d="M333.2 343.3v4.2l9.5-6v-7.3l-3.5-.3-1.7 2.8v3.7z"/>
          <path fill="#3DCBFF" d="M332 334l5.3 3 1.8-3h3.7l-5.7-3.3-2.7.3z"/>
          <path fill="#3DCBFF" d="M332 334v3l-5 3 6 3.5 4.4-3V337z"/>
        </g>
      </g>
      <g>
        <path fill="#EEE" d="M425 396l6 3.6 9.8-6-5.7-3.3z"/>
        <path fill="#656871" d="M431 395.2v4.3l-6-3.3v-4z"/>
        <path fill="#EEE" d="M440.7 386.3v7.3l-5.7-3.4V383z"/>
        <path fill="#333" d="M431.2 395.3v4.2l9.5-6v-7.3l-3.5-.3-1.7 2.8v3.7z"/>
        <path fill="#656871" d="M430 386l5.3 3 1.8-3h3.7l-5.7-3.3-2.7.3z"/>
        <path fill="#656871" d="M430 386v3l-5 3 6 3.5 4.4-3V389z"/>
        <g>
          <path fill="#EEE" d="M436 402l6 3.6 9.8-6-5.7-3.3z"/>
          <path fill="#656871" d="M442 401.2v4.3l-6-3.3v-4z"/>
          <path fill="#EEE" d="M451.7 392.3v7.3l-5.7-3.4V389z"/>
          <path fill="#333" d="M442.2 401.3v4.2l9.5-6v-7.3l-3.5-.3-1.7 2.8v3.7z"/>
          <path fill="#656871" d="M441 392l5.3 3 1.8-3h3.7l-5.7-3.3-2.7.3z"/>
          <path fill="#656871" d="M441 392v3l-5 3 6 3.5 4.4-3V395z"/>
        </g>
        <g>
          <path fill="#EEE" d="M447 408l6 3.6 9.8-6-5.7-3.3z"/>
          <path fill="#656871" d="M453 407.2v4.3l-6-3.3v-4z"/>
          <path fill="#EEE" d="M462.7 398.3v7.3l-5.7-3.4V395z"/>
          <path fill="#333" d="M453.2 407.3v4.2l9.5-6v-7.3l-3.5-.3-1.7 2.8v3.7z"/>
          <path fill="#656871" d="M452 398l5.3 3 1.8-3h3.7l-5.7-3.3-2.7.3z"/>
          <path fill="#656871" d="M452 398v3l-5 3 6 3.5 4.4-3V401z"/>
        </g>
        <g>
          <path fill="#EEE" d="M458 414l6 3.6 9.8-6-5.7-3.3z"/>
          <path fill="#656871" d="M464 413.2v4.3l-6-3.3v-4z"/>
          <path fill="#EEE" d="M473.7 404.3v7.3l-5.7-3.4V401z"/>
          <path fill="#333" d="M464.2 413.3v4.2l9.5-6v-7.3l-3.5-.3-1.7 2.8v3.7z"/>
          <path fill="#656871" d="M463 404l5.3 3 1.8-3h3.7l-5.7-3.3-2.7.3z"/>
          <path fill="#656871" d="M463 404v3l-5 3 6 3.5 4.4-3V407z"/>
        </g>
        <g>
          <path fill="#EEE" d="M469 420l6 3.6 9.8-6-5.7-3.3z"/>
          <path fill="#656871" d="M475 419.2v4.3l-6-3.3v-4z"/>
          <path fill="#EEE" d="M484.7 410.3v7.3l-5.7-3.4V407z"/>
          <path fill="#333" d="M475.2 419.3v4.2l9.5-6v-7.3l-3.5-.3-1.7 2.8v3.7z"/>
          <path fill="#656871" d="M474 410l5.3 3 1.8-3h3.7l-5.7-3.3-2.7.3z"/>
          <path fill="#656871" d="M474 410v3l-5 3 6 3.5 4.4-3V413z"/>
        </g>
      </g>
      <g>
        <path fill="#3DCBFF" d="M306.2 301.6l2.4 1.4 15.7-9.2-2.3-1.3zM306.2 301.7v3l2.3 1.7v-3z"/>
        <path d="M322 292.4l-15.7 9.2v3l2.3 2V303l15.7-9.4z"/>
        <path fill="#00A3DF" d="M308.5 306.4v-3.2l15.8-9.4v3.2zM313.5 309.4v-3.2l15.8-9.4v3.2z"/>
        <path fill="#3DCBFF" d="M311.2 304.6l2.4 1.4 15.7-9.2-2.3-1.3zM311.2 304.7v3l2.3 1.7v-3z"/>
        <path fill="#00A3DF" d="M318.5 312.4v-3.2l15.8-9.4v3.2z"/>
        <path fill="#3DCBFF" d="M316.2 307.6l2.4 1.4 15.7-9.2-2.3-1.3zM316.2 307.7v3l2.3 1.7v-3z"/>
        <g>
          <path fill="#00A3DF" d="M323.5 315.4v-3.2l15.8-9.4v3.2z"/>
          <path fill="#3DCBFF" d="M321.2 310.6l2.4 1.4 15.7-9.2-2.3-1.3zM321.2 310.7v3l2.3 1.7v-3z"/>
        </g>
        <g>
          <path fill="#00A3DF" d="M328.5 318.4v-3.2l15.8-9.4v3.2z"/>
          <path fill="#3DCBFF" d="M326.2 313.6l2.4 1.4 15.7-9.2-2.3-1.3zM326.2 313.7v3l2.3 1.7v-3z"/>
        </g>
        <g>
          <path fill="#00A3DF" d="M333.5 321.4v-3.2l15.8-9.4v3.2z"/>
          <path fill="#3DCBFF" d="M331.2 316.6l2.4 1.4 15.7-9.2-2.3-1.3zM331.2 316.7v3l2.3 1.7v-3z"/>
        </g>
        <g>
          <path fill="#00A3DF" d="M338.5 324.4v-3.2l15.8-9.4v3.2z"/>
          <path fill="#3DCBFF" d="M336.2 319.6l2.4 1.4 15.7-9.2-2.3-1.3zM336.2 319.7v3l2.3 1.7v-3z"/>
        </g>
        <g>
          <path fill="#00A3DF" d="M343.5 327.4v-3.2l15.8-9.4v3.2z"/>
          <path fill="#3DCBFF" d="M341.2 322.6l2.4 1.4 15.7-9.2-2.3-1.3zM341.2 322.7v3l2.3 1.7v-3z"/>
        </g>
        <g>
          <path fill="#00A3DF" d="M348.5 330.4v-3.2l15.8-9.4v3.2z"/>
          <path fill="#3DCBFF" d="M346.2 325.6l2.4 1.4 15.7-9.2-2.3-1.3zM346.2 325.7v3l2.3 1.7v-3z"/>
        </g>
        <g>
          <path fill="#00A3DF" d="M353.5 333.4v-3.2l15.8-9.4v3.2z"/>
          <path fill="#3DCBFF" d="M351.2 328.6l2.4 1.4 15.7-9.2-2.3-1.3zM351.2 328.7v3l2.3 1.7v-3z"/>
        </g>
      </g>
      <g>
        <path fill="#EEE" d="M545 140l6 3.6 9.8-6-5.7-3.3z"/>
        <path fill="#00CE5C" d="M551 139.2v4.3l-6-3.3v-4z"/>
        <path fill="#EEE" d="M560.7 130.3v7.3l-5.7-3.4V127z"/>
        <path fill="#2B8E57" d="M551.2 139.3v4.2l9.5-6v-7.3l-3.5-.3-1.7 2.8v3.7z"/>
        <path fill="#00CE5C" d="M550 130l5.3 3 1.8-3h3.7l-5.7-3.3-2.7.3z"/>
        <path fill="#00CE5C" d="M550 130v3l-5 3 6 3.5 4.4-3V133z"/>
        <g>
          <path fill="#EEE" d="M556 146l6 3.6 9.8-6-5.7-3.3z"/>
          <path fill="#00CE5C" d="M562 145.2v4.3l-6-3.3v-4z"/>
          <path fill="#EEE" d="M571.7 136.3v7.3l-5.7-3.4V133z"/>
          <path fill="#2B8E57" d="M562.2 145.3v4.2l9.5-6v-7.3l-3.5-.3-1.7 2.8v3.7z"/>
          <path fill="#00CE5C" d="M561 136l5.3 3 1.8-3h3.7l-5.7-3.3-2.7.3z"/>
          <path fill="#00CE5C" d="M561 136v3l-5 3 6 3.5 4.4-3V139z"/>
        </g>
        <g>
          <path fill="#EEE" d="M567 152l6 3.6 9.8-6-5.7-3.3z"/>
          <path fill="#00CE5C" d="M573 151.2v4.3l-6-3.3v-4z"/>
          <path fill="#EEE" d="M582.7 142.3v7.3l-5.7-3.4V139z"/>
          <path fill="#2B8E57" d="M573.2 151.3v4.2l9.5-6v-7.3l-3.5-.3-1.7 2.8v3.7z"/>
          <path fill="#00CE5C" d="M572 142l5.3 3 1.8-3h3.7l-5.7-3.3-2.7.3z"/>
          <path fill="#00CE5C" d="M572 142v3l-5 3 6 3.5 4.4-3V145z"/>
        </g>
        <g>
          <path fill="#EEE" d="M578 158l6 3.6 9.8-6-5.7-3.3z"/>
          <path fill="#00CE5C" d="M584 157.2v4.3l-6-3.3v-4z"/>
          <path fill="#EEE" d="M593.7 148.3v7.3l-5.7-3.4V145z"/>
          <path fill="#2B8E57" d="M584.2 157.3v4.2l9.5-6v-7.3l-3.5-.3-1.7 2.8v3.7z"/>
          <path fill="#00CE5C" d="M583 148l5.3 3 1.8-3h3.7l-5.7-3.3-2.7.3z"/>
          <path fill="#00CE5C" d="M583 148v3l-5 3 6 3.5 4.4-3V151z"/>
        </g>
        <g>
          <path fill="#EEE" d="M589 164l6 3.6 9.8-6-5.7-3.3z"/>
          <path fill="#00CE5C" d="M595 163.2v4.3l-6-3.3v-4z"/>
          <path fill="#EEE" d="M604.7 154.3v7.3l-5.7-3.4V151z"/>
          <path fill="#2B8E57" d="M595.2 163.3v4.2l9.5-6v-7.3l-3.5-.3-1.7 2.8v3.7z"/>
          <path fill="#00CE5C" d="M594 154l5.3 3 1.8-3h3.7l-5.7-3.3-2.7.3z"/>
          <path fill="#00CE5C" d="M594 154v3l-5 3 6 3.5 4.4-3V157z"/>
        </g>
      </g>
    </g>
    <g>
      <g transform="translate(92 135)">
        <circle cx="164" cy="6" r="6" fill="#FF5757"/>
        <path stroke="#FF5757" stroke-width="2" d="M163 6H0"/>
      </g>
      <g transform="translate(126 316)">
        <circle cx="104" cy="6" r="6" fill="#FF5757"/>
        <path stroke="#FF5757" stroke-width="2" d="M103 6H1"/>
      </g>
      <g transform="rotate(90 185.5 225.5)">
        <circle cx="159" cy="6" r="6" fill="#FF5757"/>
        <path stroke="#FF5757" stroke-width="2" d="M160 6H0"/>
      </g>
      <path fill="#FF5757" d="M606 326c-3.3 0-6 2.6-6 6 0 3.3 2.7 6 6 6s6-2.7 6-6c0-3.4-2.7-6-6-6z"/>
      <path stroke="#FF5757" stroke-width="2" d="M607 330.8h62"/>
      <path fill="#FF5757" d="M340.2 348.2c0-3-2.4-5.6-5.5-5.6-3 0-5.5 2.5-5.5 5.6 0 3 2.4 5.6 5.5 5.6 3 0 5.5-2.5 5.5-5.6z"/>
      <path stroke="#FF5757" stroke-width="2" d="M335.2 348v107h-195"/>
      <g transform="rotate(180 335 34.5)">
        <circle cx="142" cy="6" r="6" fill="#FF5757"/>
        <path stroke="#FF5757" stroke-width="2" d="M138 6H0"/>
      </g>
      <g transform="rotate(180 335 218.5)">
        <circle cx="55" cy="6" r="6" fill="#FF5757"/>
        <path stroke="#FF5757" stroke-width="2" d="M55 6H1"/>
      </g>
      <g transform="translate(48 52)">
        <circle cx="164" cy="29" r="6" fill="#FF5757"/>
        <path stroke="#FF5757" stroke-width="2" d="M163.3 29H0V0"/>
      </g>
      <g transform="rotate(180 447.5 132.5)">
        <circle cx="82" cy="14" r="6" fill="#FF5757"/>
        <path stroke="#FF5757" stroke-width="2" d="M85.3 14H0V0"/>
      </g>
    </g>
  </g>
</svg>
